<svg id="Marcas_de_impresión" data-name="Marcas de impresión" xmlns="http://www.w3.org/2000/svg" xmlns:xlink="http://www.w3.org/1999/xlink" viewBox="0 0 1613.21 2164.65"><defs><style>.cls-1{fill:none;}.cls-2{clip-path:url(#clip-path);}.cls-3,.cls-4{fill:#12a9cb;isolation:isolate;}.cls-3{opacity:0.3;}.cls-4{opacity:0.5;}</style><clipPath id="clip-path"><polygon class="cls-1" points="1613.65 2164.7 -802.35 2164.7 -799.08 -3790.93 1610.37 -3790.93 1613.65 2164.7"/></clipPath></defs><title>Mesa de trabajo 1</title><g class="cls-2"><path class="cls-3" d="M248.23,1705.48c36.48-21.91,106.46-67.81,137.55-83.06,69.18-33.94,196.58-29,240.5-18.76,54.41,12.62,113.67,31.27,179.15,66.12,61.88,32.94,198.73,145.83,215.46,127.88,22.22-23.85-97.51-211-279.8-412.05-215.7-237.89-457.22-427.15-496.19-388-36.84,37,148.58,236.82,78.35,380-35,71.28-81.46,110.1-139.9,184.73-57,72.81-100.57,192.57-81.24,208.85,3.38,2.84,8.21,2.12,18.89-1.54C182.88,1748.44,212.09,1727.17,248.23,1705.48Z"/><path class="cls-3" d="M1199.73,1813.59s-76.65-316.59-81.38-505.44,7.37-404.35,47.08-570.58C1192.14,625.75,1348.5,77.8,1364.68,61.2c15.68-16.11,30.53,14.33,33,32,2.3,16.37,4,30.44,4.15,34.94,1.15,29.6,11.13,160.43,50.07,231.69,43.92,80.36,161,84.81,161,84.81-5.64,0,145.22,31.71,221.08,15.64,73.73-15.62-64.62,269.22-128.33,361.63S1567,994.76,1503.32,1115.28,1373.19,1486.5,1372,1693.91c-1.3,222.59-.32,363.13.06,405.16a61.88,61.88,0,0,1-11.41,36.94c-9.29,12.76-24.18,21.85-44.67-.12C1278.49,2095.76,1199.73,1813.59,1199.73,1813.59Z"/><path class="cls-4" d="M1223.92,1802.53s-49.24-322-37.78-510.55,42-402.23,95.81-564.44c36.19-109.12,238.94-641.66,256.48-656.81,17-14.71,29.18,16.9,30.15,34.75.89,16.5,1.35,30.67,1.14,35.17-1.4,29.58-2.66,160.79,30,235.12,36.86,83.84,153.15,98.3,153.15,98.3-5.63-.49,142,44,218.92,34.53,74.8-9.25-87.46,262.69-158.85,349.3S1660,1018.17,1586.2,1132.81s-161.47,358.7-180.45,565.25c-20.34,221.7-31.4,361.77-34.66,403.7a61.89,61.89,0,0,1-14.53,35.83c-10.35,11.91-26,19.7-44.49-4C1278.21,2090.36,1223.92,1802.53,1223.92,1802.53Z"/><path class="cls-4" d="M250.69,1903.69c29.62-30.56,85.43-92.92,111.54-115.66,58.13-50.6,182.52-78.55,227.59-80,55.82-1.8,117.88,1,190.13,17.8,68.27,15.91,229.56,89.78,241.1,68.13,15.34-28.75-148.51-178.79-376.4-326.18C375,1293.39,92.92,1172.65,65.33,1220.47c-26.08,45.22,204.51,190.62,173.49,347.09-15.43,77.88-50.39,127.35-87.65,214.5-36.36,85-47.64,212-24.77,222.72,4,1.88,8.48-.06,17.86-6.34C198.59,1962,221.37,1933.94,250.69,1903.69Z"/></g></svg>