<svg id="Capa_2" data-name="Capa 2" xmlns="http://www.w3.org/2000/svg" viewBox="0 0 841.89 595.28"><defs><style>.cls-1{fill:#cee9eb;}.cls-2{fill:#bbe1e4;}.cls-3{fill:#59bfc7;}.cls-4{fill:#00b4d5;}.cls-5{fill:#78c8cf;}.cls-6{fill:#fff;}.cls-7{fill:#dff0f2;}.cls-10,.cls-11,.cls-12,.cls-13,.cls-8,.cls-9{fill:none;stroke-width:0.25px;}.cls-8{stroke:#fff;}.cls-10,.cls-11,.cls-12,.cls-13,.cls-14,.cls-8,.cls-9{stroke-miterlimit:10;}.cls-9{stroke:#59bfc7;}.cls-10{stroke:#cee9eb;}.cls-11{stroke:#00b4d5;}.cls-12,.cls-13{stroke:#dff0f2;}.cls-13{stroke-linecap:round;}.cls-14{fill:#dddaee;stroke:#dddaee;}</style></defs><title>Mesa de trabajo 1</title><circle cx="423.09" cy="298.59" r="273.03"/><path class="cls-1" d="M357.15,328.05c-1.31-.86-43.63-28.42-94.18-68.85h0S243.54,225.27,233.09,192c45.31,45.94,128.07,135,124.09,136h0Z"/><path class="cls-2" d="M263,259.2c-13-10.35-26.44-21.55-39.93-33.36-2.35-16.4-8.48-35.61-18.45-60.6,1.16-.31,12.49,10.55,28.5,26.79C243.54,225.27,263,259.19,263,259.19Z"/><path class="cls-3" d="M263,259.2c50.55,40.43,92.87,68,94.18,68.85-1.3-.54-44.39-18.47-92.29-28-25-5-51.34-7.7-73.72-4.46,11.37-6.7,22.37-13.72,25.66-21.2,6.77-15.37,8.88-30.18,6.24-48.53C236.53,237.65,250,248.85,263,259.2Z"/><path class="cls-2" d="M357.16,328.06h0c-9.24,2.5-49.49-20.58-78.09-16.28-10.86,1.64-54.78,23.95-86.07,26.5h0c24.32-23.31,71.06-38,71.84-38.25,47.9,9.55,91,27.48,92.29,28Z"/><path class="cls-4" d="M695.4,283.4l.13,3.94c-10.77,3.09-21.45,6.58-32.1,10.17-25.54,8.65-51,17.62-76.7,25.62-25.11,7.8-50.88,12.34-77.37,11.22a152.62,152.62,0,0,1-20.63-2.27c-.1-.57-.2-1.14-.31-1.71,0-.13.06-.26.11-.4h0a172.15,172.15,0,0,0,49.37.55c30.86-3.79,60.06-13.79,89.23-23.94C649.83,298.68,672.52,290.7,695.4,283.4Z"/><path class="cls-4" d="M693.64,264.88,694,269q-10,3.33-19.84,7c-27,10-53.73,20.54-80.75,30.38a293.44,293.44,0,0,1-62.65,15.72,178,178,0,0,1-40.14.86c.26-.74.52-1.47.8-2.22a172.7,172.7,0,0,0,31.78-.52c29.67-3.15,57.76-12.24,85.45-22.77,27-10.25,53.75-21,80.8-31.07C690.87,265.87,692.25,265.37,693.64,264.88Z"/><path class="cls-4" d="M696.12,302.11l-.17,4c-16,3.88-31.7,8.72-47.43,13.62-23.94,7.43-47.77,15.2-72.36,20.33-21.63,4.51-43.42,6.83-65.52,4.58a151.49,151.49,0,0,1-21-3.62c0-.69-.05-1.38-.11-2.08a166.52,166.52,0,0,0,49.64,3.5c30.25-2.21,59-10.82,87.8-19.65C650,315.75,673,308.57,696.12,302.11Z"/><path class="cls-4" d="M695.53,319.57l-.6,4.6c-16.86,3.43-33.51,7.91-50.21,12.2C622.87,342,601,347.6,578.86,351.91c-27.52,5.36-55.21,5.66-82.59-1.88-2.26-.63-4.49-1.29-6.69-2h0c0-.63.07-1.24.08-1.87,21.62,6.65,43.8,8,66.35,5.93,30-2.83,58.83-11.11,87.68-19.19C660.88,328.08,678.07,323.25,695.53,319.57Z"/><path class="cls-4" d="M692.82,339.13l-.79,4.39c-17,2.72-33.81,6.54-50.64,10.33-21.34,4.8-42.69,9.52-64.47,12-31,3.58-60.57,1-88.18-10.38.09-.56.17-1.12.25-1.69,19.82,7.75,40.88,11.19,63.07,10.72,23.82-.49,47-4.93,70.19-10C645.75,349.29,669.19,343.7,692.82,339.13Z"/><path class="cls-5" d="M604.05,167.34c4.85,5.69-12.55,23.93-35.39,48.33h0c-.58.09-19.85,3.3-37.32-7.5,8.77-15.61,18.23-29.12,27.67-37.88C581.43,173.8,604.05,167.34,604.05,167.34Z"/><path class="cls-6" d="M578.49,159.78c13,4.29,25.56,7.56,25.56,7.56s-22.62,6.46-45,3l.3-.27C566.34,163.58,571.84,159.78,578.49,159.78Z"/><path class="cls-6" d="M578.49,159.78c-6.65,0-12.15,3.8-19.19,10.25l-.3.27c-12.69-2-25.32-7.11-33.77-18.39,7-17.66,14.59-30.95,22.42-35.94-.91,15.91.22,30,8.42,34.71C561.46,153.74,570.06,157,578.49,159.78Z"/><path class="cls-6" d="M568.66,215.67v0h0Z"/><path class="cls-6" d="M568.65,215.68h0c-.92.54-26.55,15.89-47.41,11.94,0-.06.06-.13.09-.2,3.2-6.63,6.55-13.11,10-19.26C548.8,219,568.07,215.77,568.65,215.68Z"/><path class="cls-6" d="M548.83,58.8c5.95,6.41.17,33.72-1.18,57.17-7.83,5-15.42,18.28-22.42,35.94-5.2-6.92-8.82-16.17-9.9-28.42C529.32,86.29,542.94,59.4,548.83,58.8Z"/><path class="cls-4" d="M568.64,215.7c-27.82,29.73-63.7,68.6-77.18,105.05-.76-.06-1.52-.11-2.29-.19,2.94-20.19,15.54-58.67,32.06-92.92C542.09,231.59,567.72,216.24,568.64,215.7Z"/><path class="cls-4" d="M559,170.3c-9.44,8.76-18.9,22.27-27.67,37.88a51.35,51.35,0,0,1-18.22-19.7h0c3.76-13.23,7.83-25.71,12.12-36.56C533.68,163.19,546.31,168.33,559,170.3Z"/><path class="cls-4" d="M493.07,407.56c21.44-3.8,78.55,49.33,69.78,55.15-22.19-19.94-61.76-43.94-62.6-44.44h0l-7.15-10.59Z"/><path class="cls-7" d="M562.85,462.71c-8.75,5.8-41.77-26.69-43.6-16.42l-.1,0-10.53-15.59-8.37-12.4C501.09,418.77,540.66,442.77,562.85,462.71Z"/><path class="cls-6" d="M515.33,123.49c1.08,12.25,4.7,21.5,9.9,28.42-4.29,10.85-8.36,23.33-12.12,36.56-4.46-8.23-7.79-18.86-9.17-32.56h0C507.66,144.55,511.5,133.64,515.33,123.49Z"/><path class="cls-6" d="M531.33,208.18c-3.46,6.15-6.81,12.63-10,19.26,0,.07-.07.14-.09.2a27.73,27.73,0,0,1-16-8.85c2.43-10.27,5.06-20.5,7.86-30.31A51.35,51.35,0,0,0,531.33,208.18Z"/><path class="cls-6" d="M513.11,188.47h0c-2.8,9.81-5.43,20-7.86,30.31-5.76-6.47-9.77-16.83-10.56-32.74,2.92-10.24,6-20.36,9.24-30.14h0C505.32,169.61,508.65,180.24,513.11,188.47Z"/><path class="cls-4" d="M519.23,446.39c-1.65,10.57,18.68,34.12,11.24,35.48-15.81,2.85-26.3-.93-33.07-8.07h0c-2.82-30.22,11.21-43.13,11.21-43.13l10.53,15.59.1,0A.36.36,0,0,1,519.23,446.39Z"/><path class="cls-5" d="M505.25,218.79a27.73,27.73,0,0,0,16,8.85c-16.52,34.25-29.12,72.73-32.06,92.92l-1.33-.13C489,302.22,495.46,260.2,505.25,218.79Z"/><path class="cls-6" d="M505.25,218.79c-9.79,41.41-16.3,83.43-17.41,101.64l-2.17-.23a69.31,69.31,0,0,0-11-20c-.2-31.37,8.45-73.71,20-114.19C495.48,202,499.49,212.32,505.25,218.79Z"/><path class="cls-7" d="M500.25,418.27l8.37,12.4s-14,12.91-11.21,43.13h0c-18.79-19.81-8.89-65.42-4.37-66.23h0l0,.11,7.15,10.59Z"/><path class="cls-4" d="M491.46,320.75c-.28.75-.54,1.48-.8,2.22l-1.78-.19c.08-.71.18-1.45.29-2.22C489.94,320.64,490.7,320.69,491.46,320.75Z"/><path class="cls-4" d="M488.88,322.78l1.78.19c-.79,2.29-1.49,4.58-2.1,6.85A40.31,40.31,0,0,1,488.88,322.78Z"/><path class="cls-5" d="M487.84,320.43l1.33.13c-.11.77-.21,1.51-.29,2.22l-1.15-.13h0C487.75,322,487.78,321.21,487.84,320.43Z"/><path class="cls-5" d="M487.73,322.65l1.15.13a40.31,40.31,0,0,0-.32,7,.34.34,0,0,1-.27-.15c-.18-.84-.36-1.67-.56-2.5A42,42,0,0,1,487.73,322.65Z"/><path class="cls-6" d="M488.73,332.08q.5,3,.74,6c0,.29,0,.58.06.86.06.7.09,1.39.11,2.08.07,1.72.08,3.42,0,5.11,0,.63,0,1.24-.08,1.87h0q-.16,2.94-.59,5.8c-.08.57-.16,1.13-.25,1.69-5.06,30.12-29.39,54-60.42,56.53-36.83,3-69.18-25.32-72.23-63.18s24.32-71,61.16-73.95a66.34,66.34,0,0,1,57.4,25.33,69.31,69.31,0,0,1,11,20c.27.76.52,1.52.76,2.29.49,1.53.92,3.1,1.3,4.68a4.74,4.74,0,0,0,.56,2.5c0,.23.09.46.13.7C488.53,330.94,488.63,331.51,488.73,332.08Z"/><path class="cls-4" d="M488.56,329.82l0,.15c0,.14-.07.27-.11.4,0-.24-.09-.47-.13-.7A.34.34,0,0,0,488.56,329.82Z"/><path class="cls-6" d="M485.67,320.2l2.17.23c-.06.78-.09,1.52-.11,2.21-.44,0-.86-.09-1.3-.15C486.19,321.72,485.94,321,485.67,320.2Z"/><path class="cls-6" d="M487.73,322.64h0a42,42,0,0,0,0,4.52c-.38-1.58-.81-3.15-1.3-4.68C486.87,322.55,487.29,322.6,487.73,322.64Z"/><path class="cls-6" d="M487.73,327.17c.2.83.38,1.66.56,2.5A4.74,4.74,0,0,1,487.73,327.17Z"/><path class="cls-4" d="M390.72,426s8.29,93.8-15.13,98c6.14-44.46,5.28-75.94,5.21-78.29C386.34,438.94,390.76,431.68,390.72,426Z"/><path class="cls-7" d="M380.8,445.78c-2.81,3.48-5.91,6.85-8.86,9.85l-.1-.11c-40.26,5.18-48.52,30.38-48.52,30.38-6.25-36.57,67.4-59.86,67.4-59.86C390.76,431.68,386.34,438.94,380.8,445.78Z"/><path class="cls-7" d="M380.8,445.78c.07,2.35.93,33.83-5.21,78.29-6.69,1.21-6.4-46.61-16.52-56.67l.2-.21a128.28,128.28,0,0,0,12.67-11.56C374.89,452.63,378,449.26,380.8,445.78Z"/><path class="cls-4" d="M359.27,467.19l-.2.21a5.44,5.44,0,0,0-5-1.76c-16,2.88-29.77,26-30.76,20.26,0,0,8.26-25.2,48.52-30.38l.1.11A128.28,128.28,0,0,1,359.27,467.19Z"/><path class="cls-2" d="M264.86,300c-.78.24-47.52,14.94-71.84,38.25h0c-15.75,1.28-28.3-2.45-31.82-16.34-2.14-8.46,14.25-17.12,29.94-26.38C213.52,292.33,239.85,295,264.86,300Z"/><line class="cls-8" x1="568.65" y1="215.68" x2="568.66" y2="215.69"/><path class="cls-8" d="M474.65,300.24c-.2-31.37,8.45-73.71,20-114.19,2.92-10.24,6-20.36,9.24-30.14,3.73-11.36,7.57-22.27,11.4-32.42,14-37.2,27.61-64.09,33.5-64.69,5.95,6.41.17,33.72-1.18,57.17-.91,15.91.22,30,8.42,34.71,5.39,3.06,14,6.29,22.42,9.1,13,4.29,25.56,7.56,25.56,7.56"/><path class="cls-9" d="M357.18,328.07h0c-1.3-.54-44.39-18.47-92.29-28-25-5-51.34-7.7-73.72-4.46h0"/><path class="cls-9" d="M263,259.2c50.55,40.43,92.87,68,94.18,68.85"/><path class="cls-9" d="M223,225.84c13.49,11.81,27,23,39.93,33.36"/><path class="cls-10" d="M233.09,192v0C243.54,225.27,263,259.19,263,259.19"/><path class="cls-8" d="M559.3,170c7-6.45,12.54-10.25,19.19-10.25h.72"/><path class="cls-11" d="M531.33,208.18c8.77-15.61,18.23-29.12,27.67-37.88l.3-.27"/><path class="cls-8" d="M521.32,227.44c3.2-6.63,6.55-13.11,10-19.26"/><path class="cls-11" d="M488.56,329.82a40.31,40.31,0,0,1,.32-7c.08-.71.18-1.45.29-2.22,2.94-20.19,15.54-58.67,32.06-92.92,0-.06.06-.13.09-.2"/><path class="cls-8" d="M515.33,123.49c1.08,12.25,4.7,21.5,9.9,28.42,8.45,11.28,21.08,16.42,33.77,18.39,22.43,3.5,45-3,45-3"/><path class="cls-8" d="M503.94,155.91c1.38,13.7,4.71,24.33,9.17,32.56h0a51.35,51.35,0,0,0,18.22,19.7c17.47,10.8,36.74,7.59,37.32,7.5h0"/><path class="cls-8" d="M494.69,186.05c.79,15.91,4.8,26.27,10.56,32.74a27.73,27.73,0,0,0,16,8.85c20.86,4,46.49-11.4,47.41-11.94h0v0"/><path class="cls-12" d="M390.72,426c0,5.64-4.38,12.9-9.92,19.74-2.81,3.48-5.91,6.85-8.86,9.85a128.28,128.28,0,0,1-12.67,11.56s0,0,.06-.1"/><polyline class="cls-13" points="500.25 418.27 508.62 430.67 519.15 446.26"/><line class="cls-13" x1="493.09" y1="407.67" x2="500.24" y2="418.26"/><path class="cls-13" d="M500.25,418.27h0"/><path class="cls-6" d="M326.45,102.46h4.15v46.13h-4.15V119.42H315.62v29.17h-4.16V102.46h4.16v12.8h10.83Z"/><path class="cls-6" d="M338.39,102.46h20v4.15H342.62v8.65h12.07v4.16H342.62v25h15.77v4.16h-20Z"/><path class="cls-6" d="M374.69,148.59V125.36l-15.44-22.9h5L376.8,121l12.61-18.54h5l-15.58,22.9v23.23Z"/><path class="cls-6" d="M331.46,227.79h-20V181.66h4.23v42h15.77Z"/><path class="cls-6" d="M340.31,181.66v46.13h-4.16V181.66Z"/><path class="cls-6" d="M344.93,220.33a10,10,0,0,0,7.26,3.24,9.63,9.63,0,0,0,3-.53,6.76,6.76,0,0,0,2.58-1.52,6.64,6.64,0,0,0,.95-1,6.18,6.18,0,0,0,.76-1.29,6.29,6.29,0,0,0,.66-3q-.14-3-3.83-8.33l-3.43-4.83q-6-8.38-6-12.69a8.37,8.37,0,0,1,.8-3.63,7.72,7.72,0,0,1,2-2.78,8.36,8.36,0,0,1,6.1-2.45,8.05,8.05,0,0,1,6.66,3.49,17.55,17.55,0,0,1-2.9,2.65l.06-.06a6.94,6.94,0,0,0-4.29-1.92c-2.94,0-4.42,1.43-4.42,4.29q0,2.31,3.48,7.59l3.42,5.08q6.24,9.45,6.24,14.46a11.57,11.57,0,0,1-.8,4.35,10,10,0,0,1-2.24,3.44,10.23,10.23,0,0,1-3.56,2.31,11.58,11.58,0,0,1-4.62.85,15.17,15.17,0,0,1-7.92-2.44Z"/><path class="cls-6" d="M373.64,227.79v-42h-7.92v-4.15h20v4.15h-7.92v42Z"/><path class="cls-6" d="M390.4,181.66h20v4.15H394.62v8.65H406.7v4.16H394.62v25H410.4v4.16h-20Z"/><path class="cls-6" d="M416.87,181.66l13.39,35.9v-35.9h4v46.13h-4.73L419.37,200.4v27.39h-4.16V181.66Z"/><path class="cls-6" d="M445.11,227.79h-3.82V224h3.82Zm-3.76-8.25V181.59h3.7v37.95Z"/><path class="cls-14" d="M440.27,288.86c47,46,22,99.33,22,99.33"/></svg>